<mxfile host="app.diagrams.net" agent="Mozilla/5.0 (Windows NT 10.0; Win64; x64) AppleWebKit/537.36 (KHTML, like Gecko) Chrome/128.0.0.0 Safari/537.36" version="24.7.16">
  <diagram name="Draft 1 System Diagram" id="PvVd-dCWOsY-G4vFHqkJ">
    <mxGraphModel dx="1050" dy="1726" grid="1" gridSize="10" guides="1" tooltips="1" connect="1" arrows="1" fold="1" page="1" pageScale="1" pageWidth="827" pageHeight="1169" math="0" shadow="0">
      <root>
        <mxCell id="0" />
        <mxCell id="1" parent="0" />
        <mxCell id="YLJPASE3w7CQD_nbak-N-1" value="" style="rounded=1;whiteSpace=wrap;html=1;fillColor=none;dashed=1;" vertex="1" parent="1">
          <mxGeometry x="25" y="-15" width="810" height="520" as="geometry" />
        </mxCell>
        <mxCell id="YLJPASE3w7CQD_nbak-N-2" value="MCU&lt;div&gt;[Brain]&lt;/div&gt;" style="rounded=0;whiteSpace=wrap;html=1;fillColor=#F19C99;fillStyle=hatch;" vertex="1" parent="1">
          <mxGeometry x="360" y="160" width="120" height="60" as="geometry" />
        </mxCell>
        <mxCell id="YLJPASE3w7CQD_nbak-N-3" value="" style="endArrow=classic;html=1;rounded=0;entryX=0.25;entryY=0;entryDx=0;entryDy=0;exitX=0.5;exitY=1;exitDx=0;exitDy=0;" edge="1" parent="1" source="YLJPASE3w7CQD_nbak-N-5" target="YLJPASE3w7CQD_nbak-N-2">
          <mxGeometry width="50" height="50" relative="1" as="geometry">
            <mxPoint x="420" y="60" as="sourcePoint" />
            <mxPoint x="420" y="130" as="targetPoint" />
            <Array as="points">
              <mxPoint x="360" y="100" />
              <mxPoint x="390" y="100" />
            </Array>
          </mxGeometry>
        </mxCell>
        <mxCell id="YLJPASE3w7CQD_nbak-N-4" value="Data" style="edgeLabel;html=1;align=center;verticalAlign=middle;resizable=0;points=[];" vertex="1" connectable="0" parent="YLJPASE3w7CQD_nbak-N-3">
          <mxGeometry x="0.7147" y="1" relative="1" as="geometry">
            <mxPoint as="offset" />
          </mxGeometry>
        </mxCell>
        <mxCell id="YLJPASE3w7CQD_nbak-N-5" value="USB C Interface (Power + Data)" style="text;html=1;align=center;verticalAlign=middle;whiteSpace=wrap;rounded=0;strokeColor=default;fillColor=#F19C99;fillStyle=hatch;" vertex="1" parent="1">
          <mxGeometry x="300" y="10" width="120" height="30" as="geometry" />
        </mxCell>
        <mxCell id="YLJPASE3w7CQD_nbak-N-6" value="" style="endArrow=classic;html=1;rounded=0;exitX=0.75;exitY=1;exitDx=0;exitDy=0;entryX=0.5;entryY=0;entryDx=0;entryDy=0;" edge="1" parent="1" source="YLJPASE3w7CQD_nbak-N-2" target="YLJPASE3w7CQD_nbak-N-7">
          <mxGeometry width="50" height="50" relative="1" as="geometry">
            <mxPoint x="460" y="250" as="sourcePoint" />
            <mxPoint x="450" y="400" as="targetPoint" />
          </mxGeometry>
        </mxCell>
        <mxCell id="YLJPASE3w7CQD_nbak-N-7" value="Radio (Where shit lines up to leave)" style="text;html=1;align=center;verticalAlign=middle;whiteSpace=wrap;rounded=0;strokeColor=default;fillColor=#FFD966;fillStyle=hatch;" vertex="1" parent="1">
          <mxGeometry x="390" y="380" width="120" height="30" as="geometry" />
        </mxCell>
        <mxCell id="YLJPASE3w7CQD_nbak-N-8" value="" style="endArrow=classic;html=1;rounded=0;exitX=0.5;exitY=1;exitDx=0;exitDy=0;entryX=0.5;entryY=0;entryDx=0;entryDy=0;" edge="1" parent="1" source="YLJPASE3w7CQD_nbak-N-7" target="YLJPASE3w7CQD_nbak-N-9">
          <mxGeometry width="50" height="50" relative="1" as="geometry">
            <mxPoint x="540" y="530" as="sourcePoint" />
            <mxPoint x="450" y="450" as="targetPoint" />
          </mxGeometry>
        </mxCell>
        <mxCell id="YLJPASE3w7CQD_nbak-N-9" value="Antenna (Where shit leaves)" style="text;html=1;align=center;verticalAlign=middle;whiteSpace=wrap;rounded=0;strokeColor=default;fillColor=#FFD966;fillStyle=hatch;" vertex="1" parent="1">
          <mxGeometry x="390" y="460" width="120" height="30" as="geometry" />
        </mxCell>
        <mxCell id="YLJPASE3w7CQD_nbak-N-10" value="GPS" style="rounded=0;whiteSpace=wrap;html=1;fillColor=#97D077;fillStyle=hatch;" vertex="1" parent="1">
          <mxGeometry x="80" y="160" width="50" height="50" as="geometry" />
        </mxCell>
        <mxCell id="YLJPASE3w7CQD_nbak-N-11" value="" style="endArrow=classic;html=1;rounded=0;entryX=0.5;entryY=0;entryDx=0;entryDy=0;exitX=0.5;exitY=1;exitDx=0;exitDy=0;" edge="1" parent="1" source="YLJPASE3w7CQD_nbak-N-14" target="YLJPASE3w7CQD_nbak-N-10">
          <mxGeometry width="50" height="50" relative="1" as="geometry">
            <mxPoint x="105" y="80" as="sourcePoint" />
            <mxPoint x="120" y="60" as="targetPoint" />
          </mxGeometry>
        </mxCell>
        <mxCell id="YLJPASE3w7CQD_nbak-N-12" value="" style="endArrow=classic;html=1;rounded=0;entryX=0.75;entryY=0;entryDx=0;entryDy=0;exitX=0.5;exitY=1;exitDx=0;exitDy=0;" edge="1" parent="1" source="YLJPASE3w7CQD_nbak-N-13" target="YLJPASE3w7CQD_nbak-N-2">
          <mxGeometry width="50" height="50" relative="1" as="geometry">
            <mxPoint x="450" y="100" as="sourcePoint" />
            <mxPoint x="600" y="70" as="targetPoint" />
            <Array as="points">
              <mxPoint x="490" y="100" />
              <mxPoint x="450" y="100" />
            </Array>
          </mxGeometry>
        </mxCell>
        <mxCell id="YLJPASE3w7CQD_nbak-N-13" value="Debugging Interface (ST LInk)" style="text;html=1;align=center;verticalAlign=middle;whiteSpace=wrap;rounded=0;strokeColor=default;fillColor=#F19C99;fillStyle=hatch;" vertex="1" parent="1">
          <mxGeometry x="430" y="10" width="120" height="30" as="geometry" />
        </mxCell>
        <mxCell id="YLJPASE3w7CQD_nbak-N-14" value="Satellite Data" style="text;html=1;align=center;verticalAlign=middle;whiteSpace=wrap;rounded=0;strokeColor=default;" vertex="1" parent="1">
          <mxGeometry x="65" y="70" width="80" height="30" as="geometry" />
        </mxCell>
        <mxCell id="YLJPASE3w7CQD_nbak-N-15" value="Power Source - 18350 cell [3.7V 1.8A]" style="text;html=1;align=center;verticalAlign=middle;whiteSpace=wrap;rounded=0;strokeColor=default;fillColor=#F19C99;fillStyle=hatch;" vertex="1" parent="1">
          <mxGeometry x="680" y="160" width="120" height="60" as="geometry" />
        </mxCell>
        <mxCell id="YLJPASE3w7CQD_nbak-N-16" value="Regulation Station" style="rounded=0;whiteSpace=wrap;html=1;fillColor=#F19C99;fillStyle=hatch;" vertex="1" parent="1">
          <mxGeometry x="560" y="160" width="80" height="60" as="geometry" />
        </mxCell>
        <mxCell id="YLJPASE3w7CQD_nbak-N-17" value="" style="endArrow=classic;html=1;rounded=0;strokeColor=#FF8000;entryX=0.5;entryY=0;entryDx=0;entryDy=0;" edge="1" parent="1" target="YLJPASE3w7CQD_nbak-N-16">
          <mxGeometry width="50" height="50" relative="1" as="geometry">
            <mxPoint x="390" y="110" as="sourcePoint" />
            <mxPoint x="600" y="150" as="targetPoint" />
            <Array as="points">
              <mxPoint x="600" y="110" />
            </Array>
          </mxGeometry>
        </mxCell>
        <mxCell id="YLJPASE3w7CQD_nbak-N-18" value="USB Power" style="edgeLabel;html=1;align=center;verticalAlign=middle;resizable=0;points=[];" vertex="1" connectable="0" parent="YLJPASE3w7CQD_nbak-N-17">
          <mxGeometry x="0.272" y="2" relative="1" as="geometry">
            <mxPoint as="offset" />
          </mxGeometry>
        </mxCell>
        <mxCell id="YLJPASE3w7CQD_nbak-N-19" value="" style="endArrow=classic;html=1;rounded=0;entryX=1;entryY=0.5;entryDx=0;entryDy=0;exitX=0;exitY=0.5;exitDx=0;exitDy=0;strokeColor=#FF0000;" edge="1" parent="1" source="YLJPASE3w7CQD_nbak-N-15" target="YLJPASE3w7CQD_nbak-N-16">
          <mxGeometry width="50" height="50" relative="1" as="geometry">
            <mxPoint x="720" y="270" as="sourcePoint" />
            <mxPoint x="640" y="270" as="targetPoint" />
          </mxGeometry>
        </mxCell>
        <mxCell id="YLJPASE3w7CQD_nbak-N-20" value="Charging Station" style="rounded=0;whiteSpace=wrap;html=1;fillStyle=hatch;fillColor=#97D077;" vertex="1" parent="1">
          <mxGeometry x="700" y="80" width="80" height="60" as="geometry" />
        </mxCell>
        <mxCell id="YLJPASE3w7CQD_nbak-N-21" value="" style="endArrow=classic;html=1;rounded=0;entryX=0.5;entryY=0;entryDx=0;entryDy=0;exitX=0.5;exitY=1;exitDx=0;exitDy=0;strokeColor=#FF8000;" edge="1" parent="1" source="YLJPASE3w7CQD_nbak-N-20" target="YLJPASE3w7CQD_nbak-N-15">
          <mxGeometry width="50" height="50" relative="1" as="geometry">
            <mxPoint x="640" y="120" as="sourcePoint" />
            <mxPoint x="690" y="70" as="targetPoint" />
          </mxGeometry>
        </mxCell>
        <mxCell id="YLJPASE3w7CQD_nbak-N-22" value="" style="endArrow=classic;html=1;rounded=0;entryX=0;entryY=0.5;entryDx=0;entryDy=0;strokeColor=#FF8000;" edge="1" parent="1" target="YLJPASE3w7CQD_nbak-N-20">
          <mxGeometry width="50" height="50" relative="1" as="geometry">
            <mxPoint x="600" y="110" as="sourcePoint" />
            <mxPoint x="610" y="50" as="targetPoint" />
          </mxGeometry>
        </mxCell>
        <mxCell id="YLJPASE3w7CQD_nbak-N-23" value="GPS Battery" style="rounded=0;whiteSpace=wrap;html=1;fillStyle=hatch;fillColor=#97D077;" vertex="1" parent="1">
          <mxGeometry x="80" y="280" width="50" height="30" as="geometry" />
        </mxCell>
        <mxCell id="YLJPASE3w7CQD_nbak-N-24" value="" style="endArrow=classic;html=1;rounded=0;entryX=0.5;entryY=1;entryDx=0;entryDy=0;exitX=0.5;exitY=0;exitDx=0;exitDy=0;strokeColor=#FF0000;" edge="1" parent="1" source="YLJPASE3w7CQD_nbak-N-23" target="YLJPASE3w7CQD_nbak-N-10">
          <mxGeometry width="50" height="50" relative="1" as="geometry">
            <mxPoint x="250" y="240" as="sourcePoint" />
            <mxPoint x="170" y="240" as="targetPoint" />
          </mxGeometry>
        </mxCell>
        <mxCell id="YLJPASE3w7CQD_nbak-N-25" value="" style="endArrow=classic;html=1;rounded=0;entryX=0.75;entryY=1;entryDx=0;entryDy=0;strokeColor=#FF0000;exitX=0.5;exitY=1;exitDx=0;exitDy=0;" edge="1" parent="1" source="YLJPASE3w7CQD_nbak-N-68" target="YLJPASE3w7CQD_nbak-N-10">
          <mxGeometry width="50" height="50" relative="1" as="geometry">
            <mxPoint x="535" y="205" as="sourcePoint" />
            <mxPoint x="520" y="230" as="targetPoint" />
            <Array as="points">
              <mxPoint x="520" y="205" />
              <mxPoint x="520" y="240" />
              <mxPoint x="118" y="240" />
            </Array>
          </mxGeometry>
        </mxCell>
        <mxCell id="YLJPASE3w7CQD_nbak-N-26" value="" style="group" vertex="1" connectable="0" parent="1">
          <mxGeometry x="75" y="220" width="20" height="20" as="geometry" />
        </mxCell>
        <mxCell id="YLJPASE3w7CQD_nbak-N-27" value="" style="endArrow=none;html=1;rounded=0;" edge="1" parent="YLJPASE3w7CQD_nbak-N-26">
          <mxGeometry width="50" height="50" relative="1" as="geometry">
            <mxPoint x="3.333333333333334" y="15.052684395383881" as="sourcePoint" />
            <mxPoint x="16.666666666666664" y="15.052684395383881" as="targetPoint" />
          </mxGeometry>
        </mxCell>
        <mxCell id="YLJPASE3w7CQD_nbak-N-28" value="" style="endArrow=none;html=1;rounded=0;" edge="1" parent="YLJPASE3w7CQD_nbak-N-26">
          <mxGeometry width="50" height="50" relative="1" as="geometry">
            <mxPoint x="6.666666666666668" y="20" as="sourcePoint" />
            <mxPoint x="13.333333333333336" y="20" as="targetPoint" />
          </mxGeometry>
        </mxCell>
        <mxCell id="YLJPASE3w7CQD_nbak-N-29" value="" style="endArrow=none;html=1;rounded=0;" edge="1" parent="YLJPASE3w7CQD_nbak-N-26">
          <mxGeometry width="50" height="50" relative="1" as="geometry">
            <mxPoint y="10.03512293025592" as="sourcePoint" />
            <mxPoint x="20" y="10.03512293025592" as="targetPoint" />
          </mxGeometry>
        </mxCell>
        <mxCell id="YLJPASE3w7CQD_nbak-N-30" value="" style="endArrow=none;html=1;rounded=0;" edge="1" parent="YLJPASE3w7CQD_nbak-N-26">
          <mxGeometry width="50" height="50" relative="1" as="geometry">
            <mxPoint x="10" y="10.03512293025592" as="sourcePoint" />
            <mxPoint x="10" as="targetPoint" />
          </mxGeometry>
        </mxCell>
        <mxCell id="YLJPASE3w7CQD_nbak-N-31" value="" style="endArrow=none;html=1;rounded=0;" edge="1" parent="1">
          <mxGeometry width="50" height="50" relative="1" as="geometry">
            <mxPoint x="84.96" y="220" as="sourcePoint" />
            <mxPoint x="84.96" y="210" as="targetPoint" />
          </mxGeometry>
        </mxCell>
        <mxCell id="YLJPASE3w7CQD_nbak-N-32" value="" style="group" vertex="1" connectable="0" parent="1">
          <mxGeometry x="370" y="255" width="20" height="20" as="geometry" />
        </mxCell>
        <mxCell id="YLJPASE3w7CQD_nbak-N-33" value="" style="endArrow=none;html=1;rounded=0;" edge="1" parent="YLJPASE3w7CQD_nbak-N-32">
          <mxGeometry width="50" height="50" relative="1" as="geometry">
            <mxPoint x="3.333333333333334" y="15.052684395383881" as="sourcePoint" />
            <mxPoint x="16.666666666666664" y="15.052684395383881" as="targetPoint" />
          </mxGeometry>
        </mxCell>
        <mxCell id="YLJPASE3w7CQD_nbak-N-34" value="" style="endArrow=none;html=1;rounded=0;" edge="1" parent="YLJPASE3w7CQD_nbak-N-32">
          <mxGeometry width="50" height="50" relative="1" as="geometry">
            <mxPoint x="6.666666666666668" y="20" as="sourcePoint" />
            <mxPoint x="13.333333333333336" y="20" as="targetPoint" />
          </mxGeometry>
        </mxCell>
        <mxCell id="YLJPASE3w7CQD_nbak-N-35" value="" style="endArrow=none;html=1;rounded=0;" edge="1" parent="YLJPASE3w7CQD_nbak-N-32">
          <mxGeometry width="50" height="50" relative="1" as="geometry">
            <mxPoint y="10.03512293025592" as="sourcePoint" />
            <mxPoint x="20" y="10.03512293025592" as="targetPoint" />
          </mxGeometry>
        </mxCell>
        <mxCell id="YLJPASE3w7CQD_nbak-N-36" value="" style="endArrow=none;html=1;rounded=0;" edge="1" parent="YLJPASE3w7CQD_nbak-N-32">
          <mxGeometry width="50" height="50" relative="1" as="geometry">
            <mxPoint x="10" y="10.03512293025592" as="sourcePoint" />
            <mxPoint x="10" as="targetPoint" />
          </mxGeometry>
        </mxCell>
        <mxCell id="YLJPASE3w7CQD_nbak-N-37" value="" style="endArrow=none;html=1;rounded=0;" edge="1" parent="1">
          <mxGeometry width="50" height="50" relative="1" as="geometry">
            <mxPoint x="380" y="255" as="sourcePoint" />
            <mxPoint x="380" y="220" as="targetPoint" />
          </mxGeometry>
        </mxCell>
        <mxCell id="YLJPASE3w7CQD_nbak-N-38" value="" style="group" vertex="1" connectable="0" parent="1">
          <mxGeometry x="490" y="420" width="20" height="20" as="geometry" />
        </mxCell>
        <mxCell id="YLJPASE3w7CQD_nbak-N-39" value="" style="endArrow=none;html=1;rounded=0;" edge="1" parent="YLJPASE3w7CQD_nbak-N-38">
          <mxGeometry width="50" height="50" relative="1" as="geometry">
            <mxPoint x="3.333333333333334" y="15.052684395383881" as="sourcePoint" />
            <mxPoint x="16.666666666666664" y="15.052684395383881" as="targetPoint" />
          </mxGeometry>
        </mxCell>
        <mxCell id="YLJPASE3w7CQD_nbak-N-40" value="" style="endArrow=none;html=1;rounded=0;" edge="1" parent="YLJPASE3w7CQD_nbak-N-38">
          <mxGeometry width="50" height="50" relative="1" as="geometry">
            <mxPoint x="6.666666666666668" y="20" as="sourcePoint" />
            <mxPoint x="13.333333333333336" y="20" as="targetPoint" />
          </mxGeometry>
        </mxCell>
        <mxCell id="YLJPASE3w7CQD_nbak-N-41" value="" style="endArrow=none;html=1;rounded=0;" edge="1" parent="YLJPASE3w7CQD_nbak-N-38">
          <mxGeometry width="50" height="50" relative="1" as="geometry">
            <mxPoint y="10.03512293025592" as="sourcePoint" />
            <mxPoint x="20" y="10.03512293025592" as="targetPoint" />
          </mxGeometry>
        </mxCell>
        <mxCell id="YLJPASE3w7CQD_nbak-N-42" value="" style="endArrow=none;html=1;rounded=0;" edge="1" parent="YLJPASE3w7CQD_nbak-N-38">
          <mxGeometry width="50" height="50" relative="1" as="geometry">
            <mxPoint x="10" y="10.03512293025592" as="sourcePoint" />
            <mxPoint x="10" as="targetPoint" />
          </mxGeometry>
        </mxCell>
        <mxCell id="YLJPASE3w7CQD_nbak-N-43" value="" style="endArrow=none;html=1;rounded=0;" edge="1" parent="1">
          <mxGeometry width="50" height="50" relative="1" as="geometry">
            <mxPoint x="499.89" y="410" as="sourcePoint" />
            <mxPoint x="499.89" y="420" as="targetPoint" />
          </mxGeometry>
        </mxCell>
        <mxCell id="YLJPASE3w7CQD_nbak-N-44" value="" style="endArrow=classic;html=1;rounded=0;entryX=1;entryY=0.5;entryDx=0;entryDy=0;strokeColor=#FF0000;" edge="1" parent="1">
          <mxGeometry width="50" height="50" relative="1" as="geometry">
            <mxPoint x="480" y="240" as="sourcePoint" />
            <mxPoint x="480" y="379" as="targetPoint" />
          </mxGeometry>
        </mxCell>
        <mxCell id="YLJPASE3w7CQD_nbak-N-45" value="IMU" style="rounded=0;whiteSpace=wrap;html=1;fillColor=#B5739D;fillStyle=hatch;" vertex="1" parent="1">
          <mxGeometry x="210" y="145" width="50" height="50" as="geometry" />
        </mxCell>
        <mxCell id="YLJPASE3w7CQD_nbak-N-46" value="" style="endArrow=classic;html=1;rounded=0;entryX=0.5;entryY=1;entryDx=0;entryDy=0;strokeColor=#FF0000;" edge="1" parent="1" target="YLJPASE3w7CQD_nbak-N-45">
          <mxGeometry width="50" height="50" relative="1" as="geometry">
            <mxPoint x="235" y="240" as="sourcePoint" />
            <mxPoint x="234.5" y="210" as="targetPoint" />
          </mxGeometry>
        </mxCell>
        <mxCell id="YLJPASE3w7CQD_nbak-N-47" value="" style="endArrow=classic;html=1;rounded=0;exitX=1;exitY=0.5;exitDx=0;exitDy=0;" edge="1" parent="1" source="YLJPASE3w7CQD_nbak-N-45">
          <mxGeometry width="50" height="50" relative="1" as="geometry">
            <mxPoint x="270" y="184.76" as="sourcePoint" />
            <mxPoint x="360" y="185" as="targetPoint" />
            <Array as="points">
              <mxPoint x="310" y="170" />
              <mxPoint x="310" y="185" />
            </Array>
          </mxGeometry>
        </mxCell>
        <mxCell id="YLJPASE3w7CQD_nbak-N-48" value="" style="endArrow=classic;html=1;rounded=0;exitX=1;exitY=0.5;exitDx=0;exitDy=0;" edge="1" parent="1" source="YLJPASE3w7CQD_nbak-N-10">
          <mxGeometry width="50" height="50" relative="1" as="geometry">
            <mxPoint x="140" y="210" as="sourcePoint" />
            <mxPoint x="360" y="210" as="targetPoint" />
            <Array as="points">
              <mxPoint x="155" y="185" />
              <mxPoint x="155" y="210" />
            </Array>
          </mxGeometry>
        </mxCell>
        <mxCell id="YLJPASE3w7CQD_nbak-N-49" value="" style="endArrow=classic;html=1;rounded=0;entryX=0.5;entryY=0;entryDx=0;entryDy=0;" edge="1" parent="1" target="YLJPASE3w7CQD_nbak-N-45">
          <mxGeometry width="50" height="50" relative="1" as="geometry">
            <mxPoint x="235" y="100" as="sourcePoint" />
            <mxPoint x="230" y="90" as="targetPoint" />
          </mxGeometry>
        </mxCell>
        <mxCell id="YLJPASE3w7CQD_nbak-N-50" value="Kinetics m8" style="text;html=1;align=center;verticalAlign=middle;whiteSpace=wrap;rounded=0;strokeColor=default;fillColor=#B5739D;fillStyle=hatch;" vertex="1" parent="1">
          <mxGeometry x="205" y="70" width="60" height="30" as="geometry" />
        </mxCell>
        <mxCell id="YLJPASE3w7CQD_nbak-N-51" value="" style="endArrow=classic;html=1;rounded=0;exitX=1;exitY=0.5;exitDx=0;exitDy=0;" edge="1" parent="1" source="YLJPASE3w7CQD_nbak-N-52">
          <mxGeometry width="50" height="50" relative="1" as="geometry">
            <mxPoint x="360" y="340" as="sourcePoint" />
            <mxPoint x="420" y="220" as="targetPoint" />
            <Array as="points">
              <mxPoint x="420" y="340" />
            </Array>
          </mxGeometry>
        </mxCell>
        <mxCell id="YLJPASE3w7CQD_nbak-N-52" value="Pressure Sensor" style="rounded=0;whiteSpace=wrap;html=1;fillColor=#F19C99;fillStyle=hatch;" vertex="1" parent="1">
          <mxGeometry x="305" y="315" width="55" height="50" as="geometry" />
        </mxCell>
        <mxCell id="YLJPASE3w7CQD_nbak-N-53" value="" style="endArrow=classic;html=1;rounded=0;entryX=1;entryY=0.5;entryDx=0;entryDy=0;strokeColor=#FF0000;" edge="1" parent="1">
          <mxGeometry width="50" height="50" relative="1" as="geometry">
            <mxPoint x="332.08" y="240" as="sourcePoint" />
            <mxPoint x="332.08" y="315" as="targetPoint" />
          </mxGeometry>
        </mxCell>
        <mxCell id="YLJPASE3w7CQD_nbak-N-54" value="" style="endArrow=classic;startArrow=classic;html=1;rounded=0;entryX=0;entryY=0.5;entryDx=0;entryDy=0;" edge="1" parent="1" target="YLJPASE3w7CQD_nbak-N-55">
          <mxGeometry width="50" height="50" relative="1" as="geometry">
            <mxPoint x="465" y="220" as="sourcePoint" />
            <mxPoint x="560" y="260" as="targetPoint" />
            <Array as="points">
              <mxPoint x="465" y="285" />
            </Array>
          </mxGeometry>
        </mxCell>
        <mxCell id="YLJPASE3w7CQD_nbak-N-55" value="External Flash Storage" style="rounded=0;whiteSpace=wrap;html=1;fillColor=#F19C99;fillStyle=hatch;" vertex="1" parent="1">
          <mxGeometry x="515" y="255" width="80" height="60" as="geometry" />
        </mxCell>
        <mxCell id="YLJPASE3w7CQD_nbak-N-56" value="" style="group" vertex="1" connectable="0" parent="1">
          <mxGeometry x="275" y="345" width="20" height="20" as="geometry" />
        </mxCell>
        <mxCell id="YLJPASE3w7CQD_nbak-N-57" value="" style="endArrow=none;html=1;rounded=0;" edge="1" parent="YLJPASE3w7CQD_nbak-N-56">
          <mxGeometry width="50" height="50" relative="1" as="geometry">
            <mxPoint x="3.333333333333334" y="15.052684395383881" as="sourcePoint" />
            <mxPoint x="16.666666666666664" y="15.052684395383881" as="targetPoint" />
          </mxGeometry>
        </mxCell>
        <mxCell id="YLJPASE3w7CQD_nbak-N-58" value="" style="endArrow=none;html=1;rounded=0;" edge="1" parent="YLJPASE3w7CQD_nbak-N-56">
          <mxGeometry width="50" height="50" relative="1" as="geometry">
            <mxPoint x="6.666666666666668" y="20" as="sourcePoint" />
            <mxPoint x="13.333333333333336" y="20" as="targetPoint" />
          </mxGeometry>
        </mxCell>
        <mxCell id="YLJPASE3w7CQD_nbak-N-59" value="" style="endArrow=none;html=1;rounded=0;" edge="1" parent="YLJPASE3w7CQD_nbak-N-56">
          <mxGeometry width="50" height="50" relative="1" as="geometry">
            <mxPoint y="10.03512293025592" as="sourcePoint" />
            <mxPoint x="20" y="10.03512293025592" as="targetPoint" />
          </mxGeometry>
        </mxCell>
        <mxCell id="YLJPASE3w7CQD_nbak-N-60" value="" style="endArrow=none;html=1;rounded=0;" edge="1" parent="YLJPASE3w7CQD_nbak-N-56">
          <mxGeometry width="50" height="50" relative="1" as="geometry">
            <mxPoint x="10" y="10.03512293025592" as="sourcePoint" />
            <mxPoint x="10" as="targetPoint" />
          </mxGeometry>
        </mxCell>
        <mxCell id="YLJPASE3w7CQD_nbak-N-61" value="" style="group" vertex="1" connectable="0" parent="1">
          <mxGeometry x="185" y="170" width="20" height="20" as="geometry" />
        </mxCell>
        <mxCell id="YLJPASE3w7CQD_nbak-N-62" value="" style="endArrow=none;html=1;rounded=0;" edge="1" parent="YLJPASE3w7CQD_nbak-N-61">
          <mxGeometry width="50" height="50" relative="1" as="geometry">
            <mxPoint x="3.333333333333334" y="15.052684395383881" as="sourcePoint" />
            <mxPoint x="16.666666666666664" y="15.052684395383881" as="targetPoint" />
          </mxGeometry>
        </mxCell>
        <mxCell id="YLJPASE3w7CQD_nbak-N-63" value="" style="endArrow=none;html=1;rounded=0;" edge="1" parent="YLJPASE3w7CQD_nbak-N-61">
          <mxGeometry width="50" height="50" relative="1" as="geometry">
            <mxPoint x="6.666666666666668" y="20" as="sourcePoint" />
            <mxPoint x="13.333333333333336" y="20" as="targetPoint" />
          </mxGeometry>
        </mxCell>
        <mxCell id="YLJPASE3w7CQD_nbak-N-64" value="" style="endArrow=none;html=1;rounded=0;" edge="1" parent="YLJPASE3w7CQD_nbak-N-61">
          <mxGeometry width="50" height="50" relative="1" as="geometry">
            <mxPoint y="10.03512293025592" as="sourcePoint" />
            <mxPoint x="20" y="10.03512293025592" as="targetPoint" />
          </mxGeometry>
        </mxCell>
        <mxCell id="YLJPASE3w7CQD_nbak-N-65" value="" style="endArrow=none;html=1;rounded=0;" edge="1" parent="YLJPASE3w7CQD_nbak-N-61">
          <mxGeometry width="50" height="50" relative="1" as="geometry">
            <mxPoint x="10" y="10.03512293025592" as="sourcePoint" />
            <mxPoint x="10" as="targetPoint" />
          </mxGeometry>
        </mxCell>
        <mxCell id="YLJPASE3w7CQD_nbak-N-66" value="" style="endArrow=none;html=1;rounded=0;entryX=0;entryY=0.5;entryDx=0;entryDy=0;" edge="1" parent="1" target="YLJPASE3w7CQD_nbak-N-45">
          <mxGeometry width="50" height="50" relative="1" as="geometry">
            <mxPoint x="195" y="170" as="sourcePoint" />
            <mxPoint x="245" y="120" as="targetPoint" />
          </mxGeometry>
        </mxCell>
        <mxCell id="YLJPASE3w7CQD_nbak-N-67" value="" style="endArrow=none;html=1;rounded=0;" edge="1" parent="1">
          <mxGeometry width="50" height="50" relative="1" as="geometry">
            <mxPoint x="285" y="345" as="sourcePoint" />
            <mxPoint x="305" y="345" as="targetPoint" />
          </mxGeometry>
        </mxCell>
        <mxCell id="YLJPASE3w7CQD_nbak-N-68" value="Switch" style="rounded=0;whiteSpace=wrap;html=1;fillColor=#F19C99;fillStyle=hatch;" vertex="1" parent="1">
          <mxGeometry x="500" y="180" width="40" height="20" as="geometry" />
        </mxCell>
        <mxCell id="YLJPASE3w7CQD_nbak-N-69" value="" style="endArrow=classic;html=1;rounded=0;entryX=1;entryY=0.5;entryDx=0;entryDy=0;strokeColor=#FF0000;" edge="1" parent="1">
          <mxGeometry width="50" height="50" relative="1" as="geometry">
            <mxPoint x="560" y="190" as="sourcePoint" />
            <mxPoint x="540" y="190" as="targetPoint" />
          </mxGeometry>
        </mxCell>
        <mxCell id="YLJPASE3w7CQD_nbak-N-70" value="" style="endArrow=classic;html=1;rounded=0;entryX=1;entryY=0.5;entryDx=0;entryDy=0;strokeColor=#FF0000;" edge="1" parent="1">
          <mxGeometry width="50" height="50" relative="1" as="geometry">
            <mxPoint x="500" y="190" as="sourcePoint" />
            <mxPoint x="480" y="189.52" as="targetPoint" />
          </mxGeometry>
        </mxCell>
        <mxCell id="YLJPASE3w7CQD_nbak-N-71" value="" style="endArrow=classic;html=1;rounded=0;entryX=0.5;entryY=0;entryDx=0;entryDy=0;strokeColor=#FF0000;" edge="1" parent="1" target="YLJPASE3w7CQD_nbak-N-55">
          <mxGeometry width="50" height="50" relative="1" as="geometry">
            <mxPoint x="520" y="240" as="sourcePoint" />
            <mxPoint x="655" y="205" as="targetPoint" />
            <Array as="points">
              <mxPoint x="555" y="240" />
            </Array>
          </mxGeometry>
        </mxCell>
        <mxCell id="YLJPASE3w7CQD_nbak-N-72" value="" style="endArrow=classic;html=1;rounded=0;" edge="1" parent="1">
          <mxGeometry width="50" height="50" relative="1" as="geometry">
            <mxPoint x="332.3" y="385" as="sourcePoint" />
            <mxPoint x="332.3" y="365" as="targetPoint" />
          </mxGeometry>
        </mxCell>
        <mxCell id="YLJPASE3w7CQD_nbak-N-73" value="Haw Air Pal" style="rounded=0;whiteSpace=wrap;html=1;" vertex="1" parent="1">
          <mxGeometry x="302.5" y="385" width="60" height="35" as="geometry" />
        </mxCell>
        <mxCell id="YLJPASE3w7CQD_nbak-N-74" value="" style="endArrow=classic;html=1;rounded=0;exitX=0.75;exitY=1;exitDx=0;exitDy=0;strokeColor=#FF0000;entryX=0;entryY=0.5;entryDx=0;entryDy=0;" edge="1" parent="1" source="YLJPASE3w7CQD_nbak-N-16" target="YLJPASE3w7CQD_nbak-N-79">
          <mxGeometry width="50" height="50" relative="1" as="geometry">
            <mxPoint x="700" y="300" as="sourcePoint" />
            <mxPoint x="660" y="280" as="targetPoint" />
            <Array as="points">
              <mxPoint x="620" y="268" />
            </Array>
          </mxGeometry>
        </mxCell>
        <mxCell id="YLJPASE3w7CQD_nbak-N-75" value="Pyro" style="rounded=0;whiteSpace=wrap;html=1;fillColor=#7EA6E0;fillStyle=hatch;" vertex="1" parent="1">
          <mxGeometry x="665" y="300" width="60" height="40" as="geometry" />
        </mxCell>
        <mxCell id="YLJPASE3w7CQD_nbak-N-76" value="" style="endArrow=classic;html=1;rounded=0;exitX=1;exitY=0.75;exitDx=0;exitDy=0;entryX=0;entryY=0.5;entryDx=0;entryDy=0;" edge="1" parent="1" source="YLJPASE3w7CQD_nbak-N-2" target="YLJPASE3w7CQD_nbak-N-75">
          <mxGeometry width="50" height="50" relative="1" as="geometry">
            <mxPoint x="610" y="310" as="sourcePoint" />
            <mxPoint x="660" y="260" as="targetPoint" />
            <Array as="points">
              <mxPoint x="500" y="205" />
              <mxPoint x="500" y="230" />
              <mxPoint x="640" y="230" />
              <mxPoint x="640" y="320" />
            </Array>
          </mxGeometry>
        </mxCell>
        <mxCell id="YLJPASE3w7CQD_nbak-N-77" value="" style="endArrow=classic;html=1;rounded=0;exitX=0.5;exitY=1;exitDx=0;exitDy=0;entryX=0.5;entryY=0;entryDx=0;entryDy=0;" edge="1" parent="1" source="YLJPASE3w7CQD_nbak-N-75" target="YLJPASE3w7CQD_nbak-N-78">
          <mxGeometry width="50" height="50" relative="1" as="geometry">
            <mxPoint x="700" y="350" as="sourcePoint" />
            <mxPoint x="695" y="335" as="targetPoint" />
          </mxGeometry>
        </mxCell>
        <mxCell id="YLJPASE3w7CQD_nbak-N-78" value="E-Match" style="rounded=0;whiteSpace=wrap;html=1;fillColor=#7EA6E0;fillStyle=hatch;" vertex="1" parent="1">
          <mxGeometry x="665" y="365" width="60" height="25" as="geometry" />
        </mxCell>
        <mxCell id="YLJPASE3w7CQD_nbak-N-79" value="Big Farad Capacitor" style="rounded=0;whiteSpace=wrap;html=1;fillColor=#7EA6E0;fillStyle=hatch;" vertex="1" parent="1">
          <mxGeometry x="665" y="250" width="60" height="35" as="geometry" />
        </mxCell>
        <mxCell id="YLJPASE3w7CQD_nbak-N-80" value="" style="endArrow=classic;html=1;rounded=0;entryX=0.5;entryY=0;entryDx=0;entryDy=0;exitX=0.5;exitY=1;exitDx=0;exitDy=0;strokeColor=#FF0000;" edge="1" parent="1" source="YLJPASE3w7CQD_nbak-N-79" target="YLJPASE3w7CQD_nbak-N-75">
          <mxGeometry width="50" height="50" relative="1" as="geometry">
            <mxPoint x="690" y="285" as="sourcePoint" />
            <mxPoint x="650" y="285" as="targetPoint" />
          </mxGeometry>
        </mxCell>
        <mxCell id="YLJPASE3w7CQD_nbak-N-81" value="" style="endArrow=classic;html=1;rounded=0;entryX=0.75;entryY=0;entryDx=0;entryDy=0;exitX=0.75;exitY=1;exitDx=0;exitDy=0;strokeColor=#FF0000;" edge="1" parent="1" source="YLJPASE3w7CQD_nbak-N-75" target="YLJPASE3w7CQD_nbak-N-78">
          <mxGeometry width="50" height="50" relative="1" as="geometry">
            <mxPoint x="710" y="220" as="sourcePoint" />
            <mxPoint x="670" y="220" as="targetPoint" />
          </mxGeometry>
        </mxCell>
        <mxCell id="YLJPASE3w7CQD_nbak-N-82" value="Drill Holes" style="text;html=1;align=center;verticalAlign=middle;whiteSpace=wrap;rounded=0;" vertex="1" parent="1">
          <mxGeometry x="65" y="460" width="60" height="30" as="geometry" />
        </mxCell>
        <mxCell id="YLJPASE3w7CQD_nbak-N-83" value="" style="group" vertex="1" connectable="0" parent="1">
          <mxGeometry x="730" y="320" width="20" height="20" as="geometry" />
        </mxCell>
        <mxCell id="YLJPASE3w7CQD_nbak-N-84" value="" style="endArrow=none;html=1;rounded=0;" edge="1" parent="YLJPASE3w7CQD_nbak-N-83">
          <mxGeometry width="50" height="50" relative="1" as="geometry">
            <mxPoint x="3.333333333333334" y="15.052684395383881" as="sourcePoint" />
            <mxPoint x="16.666666666666664" y="15.052684395383881" as="targetPoint" />
          </mxGeometry>
        </mxCell>
        <mxCell id="YLJPASE3w7CQD_nbak-N-85" value="" style="endArrow=none;html=1;rounded=0;" edge="1" parent="YLJPASE3w7CQD_nbak-N-83">
          <mxGeometry width="50" height="50" relative="1" as="geometry">
            <mxPoint x="6.666666666666668" y="20" as="sourcePoint" />
            <mxPoint x="13.333333333333336" y="20" as="targetPoint" />
          </mxGeometry>
        </mxCell>
        <mxCell id="YLJPASE3w7CQD_nbak-N-86" value="" style="endArrow=none;html=1;rounded=0;" edge="1" parent="YLJPASE3w7CQD_nbak-N-83">
          <mxGeometry width="50" height="50" relative="1" as="geometry">
            <mxPoint y="10.03512293025592" as="sourcePoint" />
            <mxPoint x="20" y="10.03512293025592" as="targetPoint" />
          </mxGeometry>
        </mxCell>
        <mxCell id="YLJPASE3w7CQD_nbak-N-87" value="" style="endArrow=none;html=1;rounded=0;" edge="1" parent="YLJPASE3w7CQD_nbak-N-83">
          <mxGeometry width="50" height="50" relative="1" as="geometry">
            <mxPoint x="10" y="10.03512293025592" as="sourcePoint" />
            <mxPoint x="10" as="targetPoint" />
          </mxGeometry>
        </mxCell>
        <mxCell id="YLJPASE3w7CQD_nbak-N-88" value="" style="endArrow=none;html=1;rounded=0;exitX=1;exitY=0.5;exitDx=0;exitDy=0;" edge="1" parent="1" source="YLJPASE3w7CQD_nbak-N-75">
          <mxGeometry width="50" height="50" relative="1" as="geometry">
            <mxPoint x="690" y="370" as="sourcePoint" />
            <mxPoint x="740" y="320" as="targetPoint" />
          </mxGeometry>
        </mxCell>
        <mxCell id="YLJPASE3w7CQD_nbak-N-89" value="Reset Switch" style="rounded=0;whiteSpace=wrap;html=1;fillColor=#F19C99;fillStyle=hatch;" vertex="1" parent="1">
          <mxGeometry x="495" y="130" width="50" height="30" as="geometry" />
        </mxCell>
        <mxCell id="YLJPASE3w7CQD_nbak-N-90" value="" style="endArrow=classic;html=1;rounded=0;exitX=0;exitY=0.5;exitDx=0;exitDy=0;" edge="1" parent="1" source="YLJPASE3w7CQD_nbak-N-89">
          <mxGeometry width="50" height="50" relative="1" as="geometry">
            <mxPoint x="420" y="210" as="sourcePoint" />
            <mxPoint x="470" y="160" as="targetPoint" />
            <Array as="points">
              <mxPoint x="470" y="145" />
            </Array>
          </mxGeometry>
        </mxCell>
        <mxCell id="YLJPASE3w7CQD_nbak-N-91" value="Buzzer" style="rounded=0;whiteSpace=wrap;html=1;fillColor=#F19C99;fillStyle=hatch;" vertex="1" parent="1">
          <mxGeometry x="295" y="110" width="50" height="30" as="geometry" />
        </mxCell>
        <mxCell id="YLJPASE3w7CQD_nbak-N-92" value="" style="endArrow=classic;html=1;rounded=0;exitX=0;exitY=0.25;exitDx=0;exitDy=0;" edge="1" parent="1" source="YLJPASE3w7CQD_nbak-N-2">
          <mxGeometry width="50" height="50" relative="1" as="geometry">
            <mxPoint x="270" y="190" as="sourcePoint" />
            <mxPoint x="320" y="140" as="targetPoint" />
            <Array as="points">
              <mxPoint x="320" y="175" />
            </Array>
          </mxGeometry>
        </mxCell>
      </root>
    </mxGraphModel>
  </diagram>
</mxfile>
